<svg data-v-fde0c5aa="" xmlns="http://www.w3.org/2000/svg" viewBox="0 0 300 300" class="iconLeft"><!----><defs data-v-fde0c5aa=""><!----></defs><rect data-v-fde0c5aa="" fill="#E1F3FC" x="0" y="0" width="300px" height="300px" class="logo-background-square"></rect><defs data-v-fde0c5aa=""><!----></defs><g data-v-fde0c5aa="" id="ae7e2351-48f1-4df8-a17f-8030aaa1cf3d" fill="#012B3D" transform="matrix(2.9883624365466717,0,0,2.9883624365466717,90.19016961084749,121.26689585658563)"><path d="M4.47 6.86C3.50 6.86 2.76 7.32 2.35 7.98L2.35 7L1.04 7L1.04 14L2.35 14L2.35 10.18C2.35 8.79 3.08 8.06 4.06 8.06C5.05 8.06 5.77 8.79 5.77 10.18L5.77 14L7.08 14L7.08 9.98C7.08 7.90 5.84 6.86 4.47 6.86ZM11.97 6.90C9.91 6.90 8.54 8.55 8.54 10.50C8.54 12.46 9.88 14.11 12.11 14.11C13.06 14.11 13.90 13.85 14.49 13.41L14.49 12.08C13.82 12.54 13.10 12.84 12.18 12.84C10.98 12.84 10.11 12.14 9.90 11.03L15.25 11.03C15.40 8.82 14.15 6.90 11.97 6.90ZM11.94 8.22C12.95 8.22 13.66 8.92 13.86 9.94L9.91 9.94C10.12 8.93 10.88 8.22 11.94 8.22ZM25.76 7L23.09 12.42L21.98 10.22L23.62 7L22.27 7L21.34 9.02L20.41 7L19.07 7L20.69 10.23L19.61 12.42L16.93 7L15.53 7L19.08 14.03L20.08 14.03L21.34 11.45L22.61 14.03L23.59 14.03L27.16 7ZM30.06 14.11C31.51 14.11 32.48 13.24 32.49 12.10C32.49 9.66 29.13 10.12 29.15 8.86C29.15 8.44 29.53 8.16 30.06 8.16C30.65 8.16 31.21 8.57 31.51 8.85L32.28 7.88C31.85 7.39 31.02 6.87 30.04 6.89C28.67 6.89 27.79 7.77 27.79 8.83C27.78 11.21 31.12 10.71 31.12 12.07C31.12 12.53 30.69 12.84 30.10 12.84C29.44 12.84 28.84 12.45 28.41 12.03L27.58 13.01C28.15 13.65 29.18 14.11 30.06 14.11ZM36.93 7L35.49 7L35.49 5.12L34.17 5.12L34.17 7L33.28 7L33.28 8.26L34.17 8.26L34.17 14L35.49 14L35.49 8.26L36.93 8.26ZM43.13 7L43.13 8.12C42.59 7.39 41.78 6.90 40.74 6.90C38.79 6.90 37.46 8.48 37.46 10.50C37.46 12.52 38.79 14.10 40.74 14.10C41.78 14.10 42.59 13.61 43.13 12.88L43.13 14L44.45 14L44.45 7ZM40.96 12.82C39.70 12.82 38.82 11.79 38.82 10.50C38.82 9.23 39.70 8.19 40.96 8.19C42.22 8.19 43.13 9.27 43.13 10.50C43.13 11.73 42.22 12.82 40.96 12.82ZM49.57 7L48.13 7L48.13 5.12L46.82 5.12L46.82 7L45.92 7L45.92 8.26L46.82 8.26L46.82 14L48.13 14L48.13 8.26L49.57 8.26ZM53.54 6.90C51.48 6.90 50.11 8.55 50.11 10.50C50.11 12.46 51.45 14.11 53.68 14.11C54.63 14.11 55.47 13.85 56.06 13.41L56.06 12.08C55.38 12.54 54.67 12.84 53.75 12.84C52.54 12.84 51.67 12.14 51.46 11.03L56.81 11.03C56.97 8.82 55.72 6.90 53.54 6.90ZM53.51 8.22C54.52 8.22 55.23 8.92 55.43 9.94L51.48 9.94C51.69 8.93 52.44 8.22 53.51 8.22Z"></path></g><defs data-v-fde0c5aa=""><linearGradient data-v-fde0c5aa="" gradientTransform="rotate(25)" id="14dcf274-2195-47c4-ad77-e54268ed91a2" x1="0%" y1="0%" x2="100%" y2="0%"><stop data-v-fde0c5aa="" offset="0%" stop-color="#0076DD" stop-opacity="1"></stop><stop data-v-fde0c5aa="" offset="100%" stop-color="#00CDE9" stop-opacity="1"></stop></linearGradient></defs><g data-v-fde0c5aa="" id="197c966d-e125-463e-9ce9-94a86b4bd334" stroke="none" fill="url(#14dcf274-2195-47c4-ad77-e54268ed91a2)" transform="matrix(1.2593145759643452,0,0,1.2593145759643452,40,129.8509667845705)"><path d="M0 32h32V0H0v32zM2.038 2.038h27.923v27.923H2.038V2.038z"></path><path d="M4.038 27.962h23.923V4.038H4.038v23.924zM21.049 8.25h3.402v3.402h-3.402V8.25zm0 6.049h3.402v3.402h-3.402v-3.402zm0 6.049h3.402v3.402h-3.402v-3.402zM14.299 8.25h3.402v3.402h-3.402V8.25zm0 6.049h3.402v3.402h-3.402v-3.402zm0 6.049h3.402v3.402h-3.402v-3.402zM7.549 8.25h3.402v3.402H7.549V8.25zm0 6.049h3.402v3.402H7.549v-3.402zm0 6.049h3.402v3.402H7.549v-3.402z"></path></g><!----></svg>